<?xml version="1.0" encoding="utf-8"?><svg viewBox="0 0 27 27" xmlns="http://www.w3.org/2000/svg" xmlns:xlink="http://www.w3.org/1999/xlink"><style>:root>svg{display:none}:root>svg:target{display:block}</style><svg viewBox="0 0 27 27" id="modal-close-icon" xmlns="http://www.w3.org/2000/svg"><path d="M25.586 5.271a2 2 0 000-2.828l-1.03-1.029a2 2 0 00-2.828 0L14.915 8.23a2 2 0 01-2.828 0L5.27 1.414a2 2 0 00-2.828 0L1.414 2.443a2 2 0 000 2.828l6.814 6.815a2 2 0 010 2.828L1.414 21.73a2 2 0 000 2.828l1.029 1.029a2 2 0 002.828 0l6.815-6.815a2 2 0 012.828 0l6.815 6.815a2 2 0 002.828 0l1.029-1.029a2 2 0 000-2.828l-6.815-6.815a2 2 0 010-2.828l6.815-6.815z"/></svg></svg>